<svg width="16" height="16" viewBox="0 0 16 16" fill="none" xmlns="http://www.w3.org/2000/svg">
<path d="M8.38499 13.7199L13.5959 8.509C14.8763 7.22863 15.0652 5.12224 13.8535 3.77667C13.55 3.43865 13.1808 3.16602 12.7685 2.9754C12.3561 2.78478 11.9092 2.68017 11.4551 2.66796C11.001 2.65574 10.5492 2.73618 10.1272 2.90437C9.70517 3.07255 9.32187 3.32495 9.00064 3.64617L8.02122 4.62558L7.1756 3.77996C5.89523 2.49959 3.78883 2.31069 2.44326 3.52235C2.10525 3.82585 1.83261 4.19504 1.64199 4.60739C1.45137 5.01974 1.34676 5.4666 1.33455 5.92072C1.32234 6.37483 1.40278 6.82667 1.57096 7.24867C1.73915 7.67067 1.99155 8.05398 2.31276 8.37521L7.65745 13.7199C7.75393 13.8164 7.88478 13.8706 8.02122 13.8706C8.15766 13.8706 8.28851 13.8164 8.38499 13.7199Z" stroke="#333F48" stroke-width="1.5" stroke-linecap="round" stroke-linejoin="round"/>
</svg>
