<svg width="328" height="24" viewBox="0 0 328 24" fill="none" xmlns="http://www.w3.org/2000/svg">
<path d="M134 0H98C96.8954 0 96 0.89543 96 2V22C96 23.1046 96.8954 24 98 24H134C135.105 24 136 23.1046 136 22V2C136 0.89543 135.105 0 134 0Z" fill="white"/>
<path d="M103.587 17.8775H102.355V17.1515H105.71V17.8775H104.478V21.0015H103.587V17.8775ZM106.299 17.1515H107.19V21.0015H106.299V17.1515ZM111.195 20.2865V21.0015H108.214V17.1515H111.123V17.8665H109.099V18.7025H110.887V19.3955H109.099V20.2865H111.195ZM110.144 16.838L109.671 16.5245L109.198 16.838H108.566L109.297 16.211H110.045L110.777 16.838H110.144ZM109.798 15.6445H110.672L111.277 16.31H110.661L109.798 15.6445ZM115.545 17.1515V21.0015H114.813L112.894 18.664V21.0015H112.014V17.1515H112.751L114.665 19.489V17.1515H115.545ZM121.737 21.0015L121.731 18.6915L120.598 20.5945H120.197L119.069 18.741V21.0015H118.233V17.1515H118.97L120.411 19.544L121.83 17.1515H122.562L122.573 21.0015H121.737ZM126.132 20.1765H124.344L124.003 21.0015H123.09L124.806 17.1515H125.686L127.408 21.0015H126.473L126.132 20.1765ZM125.851 19.5L125.241 18.026L124.63 19.5H125.851ZM125.246 22.1565C125.136 22.1565 125.045 22.1217 124.971 22.052C124.902 21.986 124.867 21.898 124.867 21.788C124.867 21.678 124.902 21.5863 124.971 21.513C125.045 21.4397 125.136 21.403 125.246 21.403C125.353 21.403 125.442 21.4397 125.516 21.513C125.589 21.5863 125.626 21.678 125.626 21.788C125.626 21.898 125.589 21.986 125.516 22.052C125.446 22.1217 125.356 22.1565 125.246 22.1565ZM125.246 16.882C124.957 16.882 124.718 16.8068 124.531 16.6565C124.344 16.5062 124.245 16.3027 124.234 16.046H124.773C124.777 16.1633 124.823 16.2587 124.911 16.332C125.002 16.4017 125.114 16.4365 125.246 16.4365C125.378 16.4365 125.488 16.4017 125.576 16.332C125.668 16.2587 125.716 16.1633 125.719 16.046H126.258C126.247 16.3027 126.148 16.5062 125.961 16.6565C125.774 16.8068 125.536 16.882 125.246 16.882ZM128.521 17.8775H127.289V17.1515H130.644V17.8775H129.412V21.0015H128.521V17.8775Z" fill="#333F48"/>
<path d="M120.177 4.68003C120.113 4.69983 120.045 4.69369 119.986 4.66296C119.927 4.63223 119.883 4.57942 119.864 4.51615L119.714 4.03906L116.648 4.99862H120.801L120.654 4.53062L120.177 4.68003Z" fill="#333F48"/>
<path d="M109.5 9.88091V7C109.5 6.9337 109.526 6.87011 109.573 6.82322C109.62 6.77634 109.684 6.75 109.75 6.75H110.25V6.25C110.25 6.1837 110.276 6.12011 110.323 6.07322C110.37 6.02634 110.434 6 110.5 6H121.5C121.566 6 121.63 6.02634 121.677 6.07322C121.724 6.12011 121.75 6.1837 121.75 6.25V6.75H122.25C122.316 6.75 122.38 6.77634 122.427 6.82322C122.474 6.87011 122.5 6.9337 122.5 7V10C122.5 10.0663 122.474 10.1299 122.427 10.1768C122.38 10.2237 122.316 10.25 122.25 10.25H121.75V10.75C121.75 10.8163 121.724 10.8799 121.677 10.9268C121.63 10.9737 121.566 11 121.5 11H113.177L113 11.1278V11.5H123V5.5H109V10.4217C109.142 10.22 109.31 10.0381 109.5 9.88091Z" fill="#333F48"/>
<path d="M113.301 4.99925H114.975L119.805 3.48784C119.836 3.47803 119.869 3.47449 119.902 3.47741C119.934 3.48034 119.966 3.48968 119.995 3.5049C120.024 3.52011 120.05 3.54091 120.071 3.5661C120.092 3.59129 120.108 3.62039 120.118 3.65172L120.267 4.12881L120.745 3.9794C120.808 3.9596 120.876 3.96575 120.935 3.99648C120.994 4.02722 121.038 4.08004 121.058 4.14331L121.326 4.99925H121.85L121.087 2.5625L113.301 4.99925Z" fill="#333F48"/>
<path d="M114.913 9.74531L113.869 10.5H121.25V10C121.25 9.9337 121.276 9.87011 121.323 9.82322C121.37 9.77634 121.434 9.75 121.5 9.75H122V7.25H121.5C121.434 7.25 121.37 7.22366 121.323 7.17678C121.276 7.12989 121.25 7.0663 121.25 7V6.5H110.75V7C110.75 7.0663 110.724 7.12989 110.677 7.17678C110.63 7.22366 110.566 7.25 110.5 7.25H110V9.55122C110.366 9.36365 110.769 9.26099 111.18 9.25088L113.51 7.67616C113.698 7.54954 113.917 7.47621 114.143 7.46396C114.369 7.45172 114.595 7.50102 114.795 7.60663C114.974 7.36503 115.221 7.18275 115.505 7.08341C115.789 6.98407 116.096 6.97226 116.386 7.0495C116.677 7.12675 116.938 7.28948 117.135 7.51662C117.332 7.74375 117.456 8.02481 117.491 8.32336C117.526 8.62191 117.471 8.92418 117.333 9.19099C117.194 9.45779 116.979 9.67683 116.714 9.81971C116.45 9.96259 116.148 10.0227 115.849 9.9923C115.55 9.96189 115.267 9.84233 115.037 9.64913C114.998 9.68371 114.956 9.71583 114.913 9.74531Z" fill="#333F48"/>
<path d="M117.75 12.0017H112.75C112.684 12.0017 112.62 11.9753 112.573 11.9284C112.526 11.8816 112.5 11.818 112.5 11.7517V11.0017C112.5 10.9621 112.509 10.9231 112.527 10.8879C112.545 10.8527 112.571 10.8222 112.604 10.799L114.623 9.33947C114.626 9.33794 114.628 9.33634 114.63 9.33494C114.713 9.28053 114.785 9.21009 114.841 9.12774C114.896 9.04539 114.935 8.95277 114.955 8.85526C114.975 8.75774 114.975 8.65729 114.955 8.55975C114.936 8.46221 114.897 8.36952 114.841 8.2871C114.785 8.20468 114.714 8.13416 114.631 8.07965C114.547 8.02514 114.454 7.98774 114.356 7.96961C114.259 7.95147 114.158 7.95296 114.061 7.97402C113.964 7.99507 113.872 8.03526 113.79 8.09223L111.39 9.71394C111.335 9.75103 111.268 9.76481 111.203 9.75227C110.614 9.76533 110.055 10.008 109.643 10.4283C109.232 10.8487 109.001 11.4134 109 12.0017V13.5017H114.75C114.873 13.5015 114.994 13.4713 115.103 13.4134L117.75 12.0017Z" fill="#333F48"/>
<path d="M116 7.5C115.839 7.49999 115.681 7.53869 115.538 7.61282C115.396 7.68695 115.273 7.79432 115.181 7.92584C115.204 7.95359 115.225 7.98209 115.245 8.01209C115.367 8.19245 115.44 8.40143 115.456 8.61839C115.472 8.83535 115.431 9.05277 115.338 9.24918C115.459 9.3564 115.604 9.43257 115.762 9.47116C115.919 9.50975 116.083 9.5096 116.24 9.47073C116.397 9.43186 116.543 9.35543 116.664 9.24799C116.785 9.14056 116.878 9.00534 116.935 8.85396C116.993 8.70257 117.012 8.53953 116.993 8.37886C116.973 8.21818 116.915 8.06467 116.823 7.9315C116.731 7.79834 116.608 7.6895 116.464 7.61434C116.321 7.53918 116.162 7.49994 116 7.5Z" fill="#333F48"/>
<path d="M182 0H146C144.895 0 144 0.89543 144 2V22C144 23.1046 144.895 24 146 24H182C183.105 24 184 23.1046 184 22V2C184 0.89543 183.105 0 182 0Z" fill="white"/>
<path d="M155.568 6.00073H158.411C159.458 5.98377 160.607 6.25613 160.607 7.52423C160.607 8.06888 160.283 8.51138 159.807 8.74966C160.453 8.93684 160.853 9.49867 160.853 10.188C160.853 11.6348 159.789 12.0772 158.487 12.0772H155.568V6.00073ZM157.151 8.39227H158.377C158.649 8.39227 159.024 8.24753 159.024 7.81355C159.024 7.37097 158.709 7.22639 158.377 7.22639H157.151V8.39227ZM157.151 10.8092H158.419C158.921 10.8092 159.27 10.6306 159.27 10.1284C159.27 9.59223 158.896 9.41349 158.419 9.41349H157.151V10.8092Z" fill="#333F48"/>
<path d="M163.362 6H164.971L167.243 12.0765H165.592L165.218 10.9872H163.098L162.715 12.0765H161.09L163.362 6ZM163.464 9.8129H164.843L164.171 7.68527H164.154L163.464 9.8129Z" fill="#333F48"/>
<path d="M167.688 6H169.313L171.424 9.74468H171.441V6H172.93V12.0765H171.305L169.194 8.28947H169.177V12.0765H167.688V6Z" fill="#333F48"/>
<path d="M174.01 6H175.593V8.33199L177.593 6H179.559L177.312 8.39154L179.84 12.0766H177.874L176.24 9.52358L175.593 10.2044V12.0767H174.01V6Z" fill="#333F48"/>
<path d="M151.587 14.2816H150.338V17.5284H149.248V14.2816H148V13.3438H151.587V14.2816Z" fill="#333F48"/>
<path d="M152.066 13.3438H154.2C154.938 13.3438 155.665 13.6779 155.665 14.5217C155.665 14.973 155.448 15.4008 155.009 15.5709V15.5825C155.454 15.6881 155.583 16.1861 155.618 16.5847C155.63 16.7605 155.647 17.3758 155.794 17.5284H154.715C154.622 17.3878 154.604 16.9775 154.592 16.8603C154.563 16.4383 154.493 16.0047 153.983 16.0047H153.157V17.5284H152.066V13.3438ZM153.157 15.1604H154.071C154.399 15.1604 154.575 14.9847 154.575 14.6683C154.575 14.3578 154.329 14.2169 154.024 14.2169H153.157V15.1604Z" fill="#333F48"/>
<path d="M157.436 13.3438H158.544L160.108 17.5282H158.971L158.714 16.778H157.254L156.991 17.5282H155.871L157.436 13.3438ZM157.506 15.9693H158.456L157.993 14.504H157.981L157.506 15.9693Z" fill="#333F48"/>
<path d="M160.414 13.3438H161.533L162.987 15.9225H162.999V13.3438H164.024V17.5282H162.905L161.451 14.9204H161.44V17.5282H160.414V13.3438Z" fill="#333F48"/>
<path d="M165.618 16.1238C165.641 16.6161 165.946 16.7742 166.409 16.7742C166.737 16.7742 167.077 16.6571 167.077 16.3465C167.077 15.9773 166.479 15.9069 165.876 15.7368C165.278 15.5669 164.651 15.2974 164.651 14.5295C164.651 13.6153 165.571 13.2578 166.356 13.2578C167.188 13.2578 168.026 13.662 168.032 14.6057H166.942C166.96 14.2247 166.602 14.1017 166.268 14.1017C166.034 14.1017 165.741 14.1836 165.741 14.4592C165.741 14.7815 166.344 14.8401 166.954 15.0101C167.558 15.1801 168.167 15.4613 168.167 16.2173C168.167 17.2782 167.264 17.6182 166.344 17.6182C165.383 17.6182 164.534 17.1961 164.527 16.1237L165.618 16.1238Z" fill="#333F48"/>
<path d="M168.678 13.3438H171.761V14.2169H169.768V15.0726H171.491V15.9164H169.768V17.5282H168.678V13.3438Z" fill="#333F48"/>
<path d="M172.258 13.3438H175.593V14.2169H173.348V14.9496H175.399V15.7935H173.348V16.5905H175.651V17.5282H172.258L172.258 13.3438Z" fill="#333F48"/>
<path d="M176.273 13.3438H178.407C179.145 13.3438 179.872 13.6779 179.872 14.5217C179.872 14.973 179.655 15.4008 179.216 15.5709V15.5825C179.661 15.6881 179.79 16.1861 179.825 16.5847C179.837 16.7605 179.854 17.3758 180.001 17.5284H178.922C178.828 17.3878 178.811 16.9775 178.799 16.8603C178.77 16.4383 178.7 16.0047 178.19 16.0047H177.364V17.5284H176.273V13.3438ZM177.364 15.1604H178.278C178.606 15.1604 178.782 14.9847 178.782 14.6683C178.782 14.3578 178.536 14.2169 178.231 14.2169H177.364V15.1604Z" fill="#333F48"/>
<path d="M154.598 6H148V7.32123H154.598V6Z" fill="#D92B2B"/>
<path d="M154.598 10.7578H148V12.079H154.598V10.7578Z" fill="#D92B2B"/>
<path d="M154.598 8.37891H148V9.70014H154.598V8.37891Z" fill="#D92B2B"/>
<path d="M230 0H194C192.895 0 192 0.89543 192 2V22C192 23.1046 192.895 24 194 24H230C231.105 24 232 23.1046 232 22V2C232 0.89543 231.105 0 230 0Z" fill="white"/>
<path fill-rule="evenodd" clip-rule="evenodd" d="M214.837 8.14503C215.524 7.98857 216.243 7.96279 216.943 8.04802C217.395 8.10384 217.839 8.21252 218.266 8.35797C218.135 8.9275 218.004 9.49702 217.872 10.0663C217.332 9.83625 216.743 9.70271 216.149 9.68639C215.85 9.68004 215.545 9.69727 215.263 9.79493C215.093 9.85412 214.93 9.94635 214.82 10.0834C214.728 10.1971 214.681 10.3471 214.717 10.4878C214.748 10.6146 214.839 10.7207 214.94 10.8067C215.122 10.9565 215.335 11.0669 215.547 11.175C216.022 11.4119 216.514 11.6303 216.94 11.9417C217.304 12.2026 217.614 12.5474 217.753 12.9596C217.867 13.2855 217.872 13.636 217.819 13.9727C217.756 14.3741 217.585 14.7612 217.319 15.0836C217.007 15.4669 216.574 15.7541 216.103 15.9484C215.56 16.1739 214.967 16.2826 214.375 16.3189C213.708 16.3571 213.037 16.2993 212.383 16.1738C212.063 16.1085 211.744 16.0293 211.445 15.9034C211.581 15.3152 211.716 14.727 211.852 14.1388C212.127 14.2583 212.403 14.3761 212.694 14.4599C213.027 14.558 213.373 14.6157 213.721 14.637C214.039 14.6542 214.364 14.6597 214.676 14.5879C214.922 14.5322 215.17 14.4361 215.34 14.2554C215.504 14.084 215.55 13.8224 215.446 13.6135C215.362 13.4501 215.208 13.3311 215.051 13.2289C214.815 13.0771 214.556 12.9576 214.299 12.8393C213.79 12.6049 213.289 12.3275 212.906 11.9309C212.623 11.639 212.422 11.2697 212.382 10.8753C212.341 10.4565 212.425 10.0272 212.623 9.64896C212.772 9.36361 212.986 9.10961 213.24 8.89822C213.69 8.52247 214.254 8.28129 214.837 8.14503Z" fill="#243881"/>
<path fill-rule="evenodd" clip-rule="evenodd" d="M198.052 8.14934C199.314 8.14843 200.574 8.14908 201.835 8.14882C201.944 8.1483 202.053 8.15737 202.158 8.18521C202.381 8.2413 202.58 8.37121 202.714 8.54594C202.815 8.67521 202.88 8.8265 202.912 8.98283C203.118 9.99922 203.324 11.0156 203.53 12.032C203.639 12.565 203.743 13.0989 203.856 13.6314C204.635 11.8046 205.414 9.97707 206.191 8.14934C206.978 8.14778 207.764 8.14869 208.55 8.14882C207.337 10.8352 206.125 13.5219 204.911 16.2082C204.121 16.2082 203.331 16.2064 202.541 16.2091C201.949 14.0956 201.363 11.9808 200.774 9.86698C200.721 9.68538 200.679 9.49485 200.565 9.33618C200.446 9.17259 200.25 9.08179 200.065 8.99656C199.611 8.79567 199.129 8.65306 198.645 8.52898C198.431 8.47561 198.216 8.42665 198 8.38248C198.017 8.30464 198.036 8.22731 198.052 8.14934Z" fill="#192164"/>
<path fill-rule="evenodd" clip-rule="evenodd" d="M209.402 8.63284C209.44 8.47016 209.475 8.30683 209.515 8.14453C210.263 8.14686 211.011 8.1444 211.759 8.1457C211.139 10.8319 210.521 13.5184 209.902 16.2048C209.153 16.2054 208.405 16.2048 207.656 16.205C208.238 13.681 208.82 11.1569 209.402 8.63284Z" fill="#28327B"/>
<path fill-rule="evenodd" clip-rule="evenodd" d="M221.107 8.72927C221.256 8.39108 221.628 8.1512 222.023 8.14628C222.674 8.14304 223.325 8.14537 223.976 8.14498C224.581 10.8317 225.185 13.5186 225.789 16.2055C225.097 16.206 224.405 16.2054 223.712 16.2056C223.62 15.8047 223.531 15.4032 223.44 15.0021C222.48 15.0016 221.52 15.0022 220.561 15.0016C220.404 15.4023 220.247 15.8031 220.092 16.2045C219.306 16.2064 218.52 16.2054 217.734 16.2049C218.858 13.7129 219.982 11.2208 221.107 8.72927ZM221.207 13.348C221.827 13.3485 222.448 13.3482 223.068 13.3482C222.841 12.3408 222.615 11.3335 222.389 10.3262C221.993 11.3327 221.601 12.3408 221.207 13.348Z" fill="#344490"/>
<path d="M278 0H242C240.895 0 240 0.89543 240 2V22C240 23.1046 240.895 24 242 24H278C279.105 24 280 23.1046 280 22V2C280 0.89543 279.105 0 278 0Z" fill="white"/>
<g opacity="0.01">
<path d="M272.194 4H248V20H272.194V4Z" fill="white"/>
</g>
<path d="M263.287 6.78906H256.906V17.2141H263.287V6.78906Z" fill="#F26122"/>
<path d="M257.594 11.9985C257.583 9.9695 258.505 8.04795 260.094 6.78604C257.375 4.6481 253.47 4.95855 251.123 7.49917C248.777 10.0398 248.777 13.9573 251.123 16.4979C253.47 19.0385 257.375 19.349 260.094 17.211C258.505 15.9491 257.583 14.0276 257.594 11.9985Z" fill="#EA1D25"/>
<path fill-rule="evenodd" clip-rule="evenodd" d="M270.182 15.8953V16.1078H270.144V15.8953H270.057V15.8516H270.275V15.8953H270.182ZM270.606 15.8516V16.1078H270.562V15.9141L270.494 16.0828H270.444L270.369 15.9141V16.1078H270.325V15.8516H270.387L270.469 16.0328L270.544 15.8516H270.606Z" fill="#F69E1E"/>
<path d="M270.819 11.9981C270.817 14.5352 269.368 16.849 267.086 17.958C264.804 19.067 262.09 18.7769 260.094 17.2106C262.969 14.9468 263.467 10.7821 261.206 7.90438C260.882 7.48767 260.509 7.11199 260.094 6.78563C262.09 5.21937 264.804 4.92922 267.086 6.03824C269.368 7.14725 270.817 9.46104 270.819 11.9981Z" fill="#F69E1E"/>
<path d="M326 0H290C288.895 0 288 0.89543 288 2V22C288 23.1046 288.895 24 290 24H326C327.105 24 328 23.1046 328 22V2C328 0.89543 327.105 0 326 0Z" fill="white"/>
<path fill-rule="evenodd" clip-rule="evenodd" d="M313.455 13.9529H315.031C315.076 13.9529 315.182 13.9379 315.227 13.9379C315.527 13.8779 315.782 13.6076 315.782 13.2323C315.782 12.872 315.527 12.6018 315.227 12.5267C315.182 12.5117 315.091 12.5117 315.031 12.5117H313.455V13.9529Z" fill="url(#paint0_linear_4210_96032)"/>
<path fill-rule="evenodd" clip-rule="evenodd" d="M314.851 4C313.35 4 312.119 5.21603 312.119 6.73232V9.56973H315.977C316.067 9.56973 316.172 9.56973 316.247 9.58474C317.118 9.62978 317.763 10.0802 317.763 10.8608C317.763 11.4763 317.328 12.0018 316.517 12.1069V12.1369C317.403 12.197 318.079 12.6924 318.079 13.458C318.079 14.2837 317.328 14.8242 316.337 14.8242H312.104V20.3789H316.112C317.613 20.3789 318.844 19.1629 318.844 17.6466V4H314.851Z" fill="url(#paint1_linear_4210_96032)"/>
<path fill-rule="evenodd" clip-rule="evenodd" d="M315.587 11.0395C315.587 10.6792 315.332 10.439 315.031 10.3939C315.001 10.3939 314.926 10.3789 314.881 10.3789H313.455V11.7H314.881C314.926 11.7 315.016 11.7 315.031 11.685C315.332 11.64 315.587 11.3998 315.587 11.0395Z" fill="url(#paint2_linear_4210_96032)"/>
<path fill-rule="evenodd" clip-rule="evenodd" d="M299.747 4C298.246 4 297.015 5.21603 297.015 6.73232V13.473C297.781 13.8484 298.576 14.0886 299.372 14.0886C300.318 14.0886 300.828 13.5181 300.828 12.7374V9.55472H303.17V12.7224C303.17 13.9534 302.405 14.9593 299.807 14.9593C298.231 14.9593 297 14.614 297 14.614V20.3639H301.008C302.51 20.3639 303.741 19.1479 303.741 17.6316V4H299.747Z" fill="url(#paint3_linear_4210_96032)"/>
<path fill-rule="evenodd" clip-rule="evenodd" d="M307.299 4C305.797 4 304.566 5.21603 304.566 6.73232V10.3054C305.257 9.71986 306.458 9.34454 308.395 9.43461C309.431 9.47965 310.541 9.76489 310.541 9.76489V10.9209C309.986 10.6356 309.325 10.3804 308.47 10.3204C306.998 10.2153 306.113 10.9359 306.113 12.197C306.113 13.473 306.998 14.1937 308.47 14.0736C309.325 14.0135 309.986 13.7433 310.541 13.473V14.629C310.541 14.629 309.446 14.9143 308.395 14.9593C306.458 15.0494 305.257 14.6741 304.566 14.0886V20.3939H308.575C310.076 20.3939 311.307 19.1779 311.307 17.6616V4H307.299Z" fill="url(#paint4_linear_4210_96032)"/>
<path d="M38 0H2C0.89543 0 0 0.89543 0 2V22C0 23.1046 0.89543 24 2 24H38C39.1046 24 40 23.1046 40 22V2C40 0.89543 39.1046 0 38 0Z" fill="white"/>
<path d="M19.0171 9.52759C19.424 9.52759 19.8309 9.52759 20.2381 9.52759C20.5782 10.4721 20.917 11.4171 21.2573 12.3614C21.5448 11.5853 21.8321 10.809 22.12 10.033C22.1398 9.97761 22.1391 9.91398 22.1141 9.86031C22.0628 9.74754 22.0045 9.63841 21.9442 9.53034C22.2479 9.53034 22.5516 9.53034 22.8551 9.53034C22.8083 9.70172 22.7456 9.868 22.6875 10.0355C22.2852 11.1667 21.8807 12.2973 21.4776 13.4283C21.131 13.3608 20.7859 13.2289 20.5215 12.986C20.388 12.8648 20.2941 12.7059 20.2257 12.5397C20.1509 12.3601 20.0828 12.1783 20.0111 11.9974C19.7207 11.2551 19.4301 10.5129 19.1397 9.77053C19.1053 9.68642 19.0619 9.60676 19.0171 9.52759Z" fill="#ED1B23"/>
<path d="M22.9922 9.52759C23.3881 9.52734 23.7843 9.52783 24.1804 9.52734C24.8225 10.3249 25.4636 11.1232 26.1056 11.9208C26.1056 11.3038 26.1056 10.6869 26.1056 10.0699C26.1059 10.0023 26.1096 9.92936 26.0728 9.86946C26.0017 9.75248 25.9218 9.64092 25.8414 9.5301C26.2233 9.5301 26.6053 9.5301 26.9872 9.5301C26.8957 9.6461 26.8048 9.76235 26.7131 9.87836C26.6873 9.91034 26.6793 9.95235 26.6798 9.99291C26.6798 11.1425 26.6798 12.2921 26.6798 13.4417C26.4434 13.4108 26.2052 13.3638 25.9894 13.2574C25.7947 13.1624 25.6261 13.0184 25.4895 12.8497C24.9544 12.1847 24.4195 11.5198 23.8843 10.8548V12.8809C23.8821 12.9244 23.8971 12.9669 23.9248 13.0006C24.0159 13.1154 24.1064 13.2309 24.1969 13.3462C23.8149 13.3462 23.433 13.3462 23.0513 13.3462C23.1121 13.2497 23.1768 13.156 23.2432 13.0632C23.283 13.0058 23.3178 12.94 23.3153 12.868C23.3158 12.2857 23.3153 11.7036 23.3153 11.1213C23.3141 10.7583 23.3178 10.3949 23.3136 10.032C23.2104 9.8616 23.0986 9.69654 22.9922 9.52759Z" fill="#ED1B23"/>
<path d="M27.1951 9.24216C27.3856 9.23447 27.5768 9.24095 27.7673 9.23892C28.1568 9.23892 28.5461 9.23844 28.9357 9.23925C29.1801 9.2437 29.4323 9.27729 29.649 9.39905C29.8035 9.48931 29.9472 9.60977 30.0323 9.77087C30.1369 9.9786 30.1783 10.2186 30.1453 10.4497C30.1195 10.6716 30.0232 10.8872 29.8606 11.0411C29.6569 11.2363 29.3831 11.3347 29.1121 11.3895C29.008 11.4028 28.9028 11.4087 28.7981 11.4204C28.7065 11.433 28.616 11.4045 28.5246 11.4026C28.7052 11.3274 28.8727 11.2047 28.9712 11.0312C29.0875 10.8309 29.1046 10.5889 29.0789 10.3628C29.0599 10.2037 29.0072 10.0378 28.8847 9.92914C28.7768 9.83167 28.6283 9.80026 28.4873 9.79807C28.4856 10.5259 28.487 11.2534 28.4865 11.9812C28.4877 12.1217 28.4843 12.2622 28.4885 12.4027C28.4976 12.5967 28.5439 12.8015 28.6787 12.9474C28.703 12.9774 28.742 12.9962 28.754 13.035C28.2345 13.0355 27.7148 13.0373 27.1953 13.0341C27.241 12.993 27.2912 12.9559 27.3267 12.9049C27.4208 12.7787 27.4493 12.6165 27.4503 12.4619C27.4506 11.5966 27.4503 10.7309 27.4503 9.86559C27.4498 9.74189 27.4451 9.6152 27.4032 9.49773C27.3635 9.3916 27.2799 9.31243 27.1951 9.24216Z" fill="#005AAA"/>
<path d="M30.8004 9.54535C31.2734 9.54066 31.7465 9.54462 32.2196 9.54309C32.5895 10.5334 32.959 11.5239 33.3292 12.5144C33.3976 12.7044 33.4623 12.9016 33.5856 13.0641C33.6479 13.1475 33.72 13.2227 33.796 13.2935C33.8099 13.3055 33.821 13.3207 33.8258 13.3392C33.2387 13.3407 32.6514 13.3392 32.0642 13.3399C32.0642 13.3343 32.0642 13.3233 32.0642 13.3177C32.1657 13.2598 32.2664 13.1766 32.2939 13.0567C32.3206 12.9201 32.2728 12.7848 32.2292 12.6572C32.1779 12.502 32.1267 12.3467 32.0755 12.1916C31.6916 12.1916 31.3077 12.1913 30.9237 12.1918C30.8791 12.3197 30.834 12.4474 30.7892 12.5753C30.7394 12.7113 30.696 12.8509 30.6759 12.9948C30.6715 13.1047 30.7467 13.1962 30.8237 13.2652C30.8467 13.2892 30.8831 13.3038 30.8908 13.3392C30.4926 13.3402 30.0944 13.3402 29.696 13.3392C29.7026 13.312 29.7257 13.2959 29.745 13.2781C29.8429 13.189 29.9274 13.0826 29.9824 12.961C30.0549 12.7987 30.11 12.6292 30.1674 12.4612C30.4204 11.7376 30.6732 11.014 30.9265 10.2905C30.972 10.1536 31.0216 10.0131 31.0188 9.8669C31.0107 9.72693 30.9029 9.62574 30.8004 9.54535ZM31.4783 10.5017C31.3493 10.8851 31.2203 11.2686 31.0915 11.652C31.3559 11.652 31.6207 11.6515 31.8855 11.6515C31.7499 11.2684 31.6143 10.8847 31.4783 10.5017Z" fill="#005AAA"/>
<path d="M32.9819 9.5492C33.4514 9.54475 33.9213 9.54847 34.3908 9.54726C34.6771 10.0047 34.9613 10.4636 35.2491 10.92C35.4089 10.689 35.5704 10.4589 35.7311 10.2281C35.7852 10.1492 35.8247 10.0606 35.8514 9.96879C35.8749 9.88273 35.8808 9.78527 35.834 9.70585C35.796 9.6351 35.7261 9.593 35.6627 9.54953C36.1083 9.54426 36.5543 9.54872 36.9999 9.54726C36.5266 10.23 36.0529 10.9128 35.579 11.5956C35.5692 11.6087 35.5628 11.6241 35.5649 11.6406C35.5651 11.8603 35.5649 12.0798 35.5649 12.2991C35.5661 12.476 35.559 12.6534 35.5793 12.8293C35.6036 12.975 35.6431 13.1264 35.7472 13.236C35.7735 13.2731 35.8217 13.2951 35.8348 13.3406C35.2976 13.3413 34.7605 13.3418 34.2234 13.3401C34.2307 13.3124 34.2589 13.3022 34.2797 13.2867C34.3709 13.2256 34.4266 13.1229 34.453 13.0178C34.4908 12.8743 34.4785 12.7244 34.4808 12.5775C34.4793 12.2571 34.4837 11.9365 34.4788 11.6164C34.1427 11.1043 33.799 10.5969 33.4602 10.0866C33.3788 9.96288 33.2962 9.83918 33.1982 9.72835C33.1351 9.65784 33.0559 9.6066 32.9819 9.5492Z" fill="#005AAA"/>
<path d="M30.9659 14.064C31.0928 14.0384 31.2228 14.0339 31.352 14.026C31.5425 14.02 31.743 14.0176 31.9186 14.1034C32.0028 14.1434 32.0811 14.208 32.1146 14.2985C32.1627 14.4235 32.1409 14.5621 32.11 14.6884C32.073 14.8416 31.9921 14.9885 31.8641 15.0823C31.7153 15.1912 31.5324 15.243 31.351 15.2566C31.2402 15.2661 31.1292 15.2552 31.0184 15.2505C30.9715 15.4726 30.9252 15.6948 30.8784 15.917C30.8744 15.9511 30.8487 15.9852 30.8117 15.9825C30.7237 15.9825 30.6352 15.9852 30.5474 15.981C30.5177 15.9778 30.5094 15.9439 30.5182 15.9194C30.6432 15.3252 30.7681 14.7312 30.8933 14.137C30.899 14.0992 30.9286 14.0703 30.9659 14.064ZM31.2115 14.3344C31.1676 14.5413 31.1238 14.7481 31.0801 14.9551C31.2294 14.9611 31.3836 14.9779 31.5285 14.9326C31.6258 14.9021 31.706 14.8248 31.7391 14.7273C31.7682 14.6402 31.7933 14.5422 31.7619 14.4524C31.7359 14.3797 31.6572 14.3491 31.5878 14.3357C31.4635 14.3137 31.3365 14.3248 31.2115 14.3344Z" fill="#009DDB"/>
<path d="M22.0181 14.0389C22.224 14.007 22.4434 14.0206 22.632 14.1163C22.6563 14.1319 22.6923 14.1487 22.6908 14.1828C22.6847 14.2346 22.6694 14.2848 22.6604 14.336C22.6543 14.3602 22.6518 14.3869 22.6361 14.4072C22.6212 14.4241 22.5967 14.4174 22.5788 14.4112C22.4451 14.3649 22.3047 14.3375 22.1635 14.334C22.0703 14.3347 21.9644 14.3473 21.898 14.4213C21.8499 14.4775 21.824 14.5739 21.8803 14.6336C21.9613 14.7149 22.0615 14.7723 22.1542 14.8384C22.2728 14.922 22.4072 14.9963 22.4851 15.1244C22.5729 15.2657 22.5423 15.4473 22.4807 15.5924C22.3993 15.7869 22.215 15.9222 22.0154 15.9717C21.8144 16.0179 21.5984 16.0164 21.4025 15.9471C21.3486 15.9267 21.289 15.9089 21.2508 15.8633C21.2432 15.8025 21.2714 15.7428 21.2795 15.6825C21.2838 15.6471 21.3003 15.5929 21.3471 15.6092C21.5346 15.6689 21.7347 15.7159 21.9318 15.6815C22.008 15.6683 22.082 15.6263 22.1191 15.5556C22.1556 15.4876 22.1806 15.3967 22.1358 15.3267C22.0926 15.2676 22.0296 15.228 21.9708 15.187C21.872 15.1179 21.7722 15.0499 21.6741 14.9799C21.5798 14.9096 21.4925 14.8117 21.4812 14.6887C21.469 14.5126 21.532 14.3288 21.6592 14.2058C21.7553 14.1096 21.8865 14.0594 22.0181 14.0389Z" fill="#009DDB"/>
<path d="M27.9723 14.2415C28.0473 14.2298 28.1218 14.215 28.1971 14.2046C28.2162 14.1996 28.2493 14.2071 28.2422 14.2335C28.227 14.3268 28.2032 14.4188 28.1851 14.5119C28.2728 14.5128 28.3606 14.5103 28.4484 14.5128C28.4697 14.5113 28.4933 14.5272 28.4888 14.5517C28.4817 14.6063 28.468 14.6602 28.4559 14.7142C28.4504 14.7476 28.4194 14.7736 28.3856 14.7706C28.3005 14.7718 28.2157 14.7701 28.1309 14.7711C28.0718 15.0563 28.0103 15.3411 27.9524 15.6265C27.9512 15.6589 27.9294 15.7136 27.9718 15.7277C28.0544 15.747 28.1407 15.7247 28.2236 15.7401C28.2277 15.7432 28.2361 15.75 28.2405 15.7532C28.237 15.8175 28.2172 15.8801 28.2039 15.9432C28.1976 15.9763 28.1608 15.9847 28.1329 15.9887C28.0113 16.0058 27.8867 16.0119 27.7656 15.9897C27.6774 15.9815 27.5999 15.9105 27.5962 15.819C27.5876 15.7336 27.6038 15.6483 27.6212 15.5649C27.6769 15.3005 27.7323 15.0358 27.7877 14.7711C27.7195 14.7584 27.6512 14.7476 27.5833 14.7342C27.5624 14.7305 27.5342 14.7179 27.5401 14.6914C27.5462 14.6474 27.5561 14.6038 27.5673 14.5608C27.5735 14.5311 27.6019 14.5108 27.6317 14.5131C27.7019 14.511 27.7723 14.5136 27.8424 14.5123C27.8591 14.4386 27.8713 14.3636 27.8906 14.2904C27.9002 14.2538 27.9416 14.2471 27.973 14.242L27.9723 14.2415Z" fill="#009DDB"/>
<path d="M23.3137 14.5211C23.4773 14.4791 23.6601 14.4776 23.8152 14.5518C23.8429 14.5687 23.8897 14.584 23.8845 14.6246C23.8738 14.6884 23.8608 14.7524 23.8442 14.8151C23.837 14.8504 23.7966 14.8524 23.7698 14.839C23.6537 14.7972 23.5274 14.7697 23.4043 14.7922C23.3192 14.8091 23.2484 14.8705 23.2079 14.9461C23.1518 15.0461 23.1383 15.1621 23.1131 15.2725C23.0925 15.3716 23.0631 15.4745 23.0854 15.5762C23.1011 15.6542 23.1771 15.7081 23.2538 15.7095C23.3693 15.7123 23.4835 15.687 23.5943 15.6561C23.6159 15.6495 23.6384 15.649 23.661 15.6485C23.6639 15.7048 23.6458 15.7593 23.6363 15.8145C23.6291 15.8496 23.624 15.8929 23.5882 15.911C23.472 15.977 23.3364 16.0024 23.204 16.0024C23.1003 16.001 22.9932 15.9829 22.903 15.9285C22.8118 15.8726 22.7539 15.7716 22.7375 15.6668C22.7184 15.5522 22.7363 15.4352 22.7613 15.3231C22.7954 15.172 22.8162 15.0147 22.8888 14.8756C22.9731 14.7047 23.1285 14.5684 23.3137 14.5211Z" fill="#009DDB"/>
<path d="M24.26 14.5768C24.4311 14.5149 24.6152 14.4858 24.7969 14.4994C24.9063 14.509 25.0244 14.5426 25.0937 14.6347C25.1685 14.7321 25.1695 14.8647 25.1473 14.9805C25.0842 15.2818 25.0197 15.5826 24.9568 15.8837C24.9528 15.9085 24.9415 15.9347 24.9139 15.9387C24.681 16.0037 24.4345 16.0222 24.1948 15.9906C24.0833 15.9743 23.9575 15.9329 23.904 15.8234C23.853 15.7026 23.8837 15.5651 23.9264 15.4465C23.967 15.3229 24.0659 15.2234 24.1848 15.1749C24.3728 15.0958 24.5809 15.1104 24.7802 15.1084C24.7935 15.0273 24.8273 14.9441 24.8052 14.8617C24.7861 14.8019 24.7155 14.7885 24.6614 14.7843C24.502 14.7762 24.3434 14.8068 24.1906 14.8502C24.1747 14.8556 24.1436 14.8544 24.1465 14.8306C24.1514 14.7698 24.1686 14.7103 24.1806 14.6505C24.1862 14.6092 24.2252 14.5892 24.26 14.5768ZM24.3958 15.3518C24.3417 15.3628 24.2897 15.3968 24.2693 15.45C24.244 15.5144 24.2237 15.5838 24.2304 15.6539C24.235 15.7026 24.2838 15.7291 24.3269 15.7356C24.4336 15.7523 24.5432 15.7479 24.6488 15.7254C24.6765 15.5962 24.703 15.4671 24.7303 15.338C24.6187 15.3407 24.5059 15.3293 24.3958 15.3518Z" fill="#009DDB"/>
<path d="M25.6106 14.5635C25.8245 14.516 26.0455 14.4813 26.2649 14.5024C26.3862 14.515 26.5223 14.5565 26.587 14.6701C26.6537 14.7913 26.637 14.938 26.6117 15.0687C26.5522 15.3509 26.4919 15.6327 26.4326 15.915C26.4279 15.949 26.4029 15.9839 26.3659 15.9842C26.2857 15.9856 26.2055 15.9856 26.1256 15.9842C26.0932 15.9854 26.081 15.9469 26.0903 15.9209C26.1506 15.6315 26.2126 15.3422 26.273 15.0528C26.282 14.9884 26.2968 14.9162 26.2629 14.8566C26.232 14.8054 26.168 14.7937 26.1136 14.7888C26.0119 14.7829 25.9101 14.797 25.8104 14.8153C25.7329 15.1831 25.6552 15.5512 25.578 15.9191C25.5741 15.953 25.5483 15.986 25.512 15.9842C25.4318 15.9854 25.3517 15.986 25.2718 15.9837C25.2394 15.9847 25.2277 15.9458 25.237 15.9199C25.3276 15.4894 25.4176 15.0589 25.5098 14.629C25.5172 14.5805 25.572 14.5739 25.6106 14.5635Z" fill="#009DDB"/>
<path d="M29.1182 14.5116C29.2502 14.4874 29.3911 14.4884 29.5175 14.5373C29.6238 14.5772 29.709 14.6665 29.7468 14.7738C29.7897 14.896 29.7836 15.0301 29.7573 15.1555C29.725 15.3017 29.7051 15.4534 29.6343 15.5875C29.547 15.7661 29.3899 15.9125 29.1994 15.9709C29.0619 16.0122 28.9123 16.0189 28.7731 15.9825C28.6635 15.9541 28.5634 15.8816 28.5119 15.7782C28.4475 15.6505 28.4507 15.4996 28.4776 15.3623C28.5129 15.2021 28.534 15.0341 28.6169 14.8896C28.7169 14.6964 28.905 14.5507 29.1182 14.5116ZM29.1761 14.7956C29.0883 14.8047 29.0079 14.855 28.9569 14.927C28.8922 15.0123 28.8674 15.1189 28.8478 15.2224C28.826 15.3361 28.786 15.4544 28.8194 15.5702C28.8346 15.6303 28.8817 15.681 28.9412 15.6978C29.0428 15.727 29.1577 15.699 29.2349 15.6263C29.3215 15.5457 29.3616 15.4286 29.3828 15.3143C29.4004 15.2174 29.431 15.1217 29.4313 15.0222C29.43 14.9574 29.4149 14.8862 29.3641 14.8419C29.3134 14.7969 29.2408 14.7887 29.1761 14.7956Z" fill="#009DDB"/>
<path d="M32.3215 14.5753C32.4901 14.5151 32.6708 14.4864 32.8498 14.499C32.9621 14.5081 33.0846 14.5425 33.1543 14.6388C33.227 14.7375 33.2265 14.8698 33.2038 14.9856C33.1464 15.2587 33.0883 15.5316 33.0307 15.8047C33.0214 15.8433 33.0179 15.8844 33.0013 15.9207C32.9755 15.946 32.9354 15.9465 32.9022 15.9563C32.7088 16.0034 32.5078 16.0149 32.31 15.9979C32.2004 15.9853 32.08 15.964 32.0003 15.8799C31.929 15.8054 31.927 15.6929 31.9429 15.5967C31.9638 15.4777 32.0049 15.355 32.0947 15.2703C32.1992 15.1702 32.345 15.1294 32.4852 15.1172C32.6019 15.1036 32.7196 15.1096 32.8368 15.1083C32.8505 15.0299 32.8811 14.95 32.8648 14.8696C32.8512 14.807 32.7807 14.7892 32.726 14.7848C32.5956 14.7766 32.4644 14.7956 32.3377 14.826C32.2984 14.8345 32.2607 14.8506 32.2204 14.8525C32.1928 14.8454 32.2047 14.8129 32.2073 14.7939C32.218 14.7432 32.2268 14.692 32.2399 14.6418C32.2484 14.6029 32.2889 14.5881 32.3215 14.5753ZM32.4607 15.3506C32.4031 15.3602 32.347 15.3958 32.3258 15.4527C32.3012 15.517 32.281 15.586 32.2881 15.6555C32.2933 15.7011 32.3386 15.7278 32.3798 15.7344C32.4882 15.7525 32.6 15.7483 32.7071 15.7248C32.7341 15.5957 32.7611 15.4668 32.7883 15.3379C32.6791 15.3404 32.5685 15.33 32.4607 15.3506Z" fill="#009DDB"/>
<path d="M33.4935 14.5834C33.4876 14.5522 33.5048 14.5131 33.5405 14.5136C33.633 14.5112 33.7259 14.511 33.8185 14.5136C33.849 14.5149 33.8531 14.5515 33.8534 14.575C33.8652 14.9216 33.8781 15.2679 33.8899 15.6145C33.8877 15.6472 33.896 15.6863 33.937 15.6798C34.1003 15.3199 34.2672 14.9614 34.4312 14.602C34.4434 14.5768 34.4527 14.549 34.4719 14.5277C34.4949 14.5063 34.529 14.5136 34.558 14.5119C34.6332 14.5139 34.7087 14.5094 34.784 14.5139C34.8136 14.5144 34.8237 14.5527 34.8072 14.5743C34.5817 15.0312 34.3554 15.4876 34.1299 15.9443C34.0698 16.0628 34.0171 16.1857 33.9389 16.2938C33.8733 16.389 33.7722 16.4583 33.66 16.4836C33.5261 16.514 33.3863 16.512 33.2515 16.489C33.2079 16.4803 33.1596 16.4756 33.127 16.442C33.1412 16.3821 33.1508 16.321 33.1662 16.2617C33.1708 16.2372 33.1922 16.2179 33.2167 16.2149C33.3476 16.2099 33.4802 16.2473 33.6102 16.2186C33.7141 16.1872 33.7531 16.0739 33.7968 15.9851C33.7416 15.9831 33.6754 15.9866 33.6362 15.9396C33.5825 15.8792 33.5813 15.7926 33.5749 15.7165C33.5479 15.339 33.5207 14.9607 33.4935 14.5834Z" fill="#009DDB"/>
<path d="M11.5751 9.92159L10.4388 11.0682L10.3819 11.1256L10.021 11.4898L9.75409 11.7621L9.3932 12.1262L9.33637 12.1807L9.18013 12.3412L9.1233 12.3956L8.59208 12.9317L8.53517 12.9861C8.37998 13.1425 8.20398 13.2766 8.01252 13.3846C7.92105 13.4364 7.82617 13.4814 7.72838 13.5195C7.50826 13.6056 7.27633 13.6568 7.04099 13.6714C6.89827 13.6843 6.75466 13.6843 6.61193 13.6714C6.30034 13.6372 5.99883 13.5398 5.72548 13.3846C5.60167 13.3201 5.48719 13.2389 5.38447 13.144L5.31901 13.0779L3.24821 10.968L3.20556 10.9249C3.16879 10.8846 3.13618 10.8406 3.10897 10.7931C3.03788 10.6716 3.00061 10.5329 3.0011 10.3918C2.99963 10.3698 2.99963 10.3478 3.0011 10.3258V10.1882C3.0288 10.0841 3.0771 9.98667 3.14304 9.90151C3.16045 9.87925 3.17957 9.85796 3.19992 9.83845L3.23693 9.80113L5.46709 7.57934L6.80242 6.23483C7.09734 5.93673 7.57051 5.92041 7.88478 6.19748L11.5751 9.92159Z" fill="#005BAA"/>
<path d="M7.55908 14.9245C7.37936 14.9238 7.20191 14.8837 7.03911 14.8071L6.61572 14.3828L6.51056 14.2797L6.4934 14.2596L6.29725 14.0616L5.31152 13.0553L5.37698 13.1214C5.48018 13.2179 5.5959 13.2997 5.72068 13.365C5.99403 13.5199 6.29555 13.6176 6.60714 13.6518C6.74986 13.6646 6.89348 13.6646 7.0362 13.6518C7.27177 13.6372 7.50371 13.586 7.72358 13.4999C7.82137 13.4618 7.91625 13.4168 8.00773 13.365C8.19919 13.2572 8.37518 13.1231 8.53037 12.9665L8.58728 12.9121L9.1185 12.376L9.17533 12.3216L9.33149 12.161L9.3884 12.1066L9.7493 11.7425L10.0162 11.4701L10.3857 11.126L10.4426 11.0686L12.7295 8.77509L13.6671 7.72301L13.7183 7.67427C14.0066 7.38462 14.4727 7.38462 14.7609 7.67427L15.2779 8.19602H15.2951C15.0605 8.18606 14.8325 8.27414 14.6644 8.43969L12.9171 10.1597L12.9 10.1797L9.86571 13.23L8.74344 14.3395L8.67528 14.4112C8.52252 14.5609 8.34701 14.6848 8.15531 14.7781C8.04861 14.8303 7.93608 14.8689 7.82016 14.8929C7.7537 14.907 7.68634 14.9156 7.61842 14.9186L7.55908 14.9245Z" fill="#ED1C24"/>
<path d="M18.0824 12.0696L18.0255 12.127L15.5509 14.6612L12.9457 17.3245C12.8648 17.4069 12.7773 17.4826 12.6844 17.5511L12.6474 17.5769C11.7131 18.2505 10.4366 18.1602 9.60454 17.3619L9.53637 17.3219L9.09039 16.8718L7.8318 15.6017L7.4114 15.1745L7.35449 15.1144C7.42217 15.1258 7.49058 15.1315 7.55898 15.1317H7.61857C7.69895 15.1283 7.77861 15.1176 7.85706 15.1003C7.99015 15.0736 8.11911 15.0293 8.24046 14.9685C8.4498 14.8636 8.64158 14.7263 8.80875 14.5613L8.8855 14.4782L9.85136 13.5206L13.1724 10.2237L13.1896 10.2007L14.8203 8.60681C15.0386 8.39576 15.3729 8.36581 15.6245 8.53508L16.0052 8.92196L18.0792 11.0175C18.0978 11.0354 18.1147 11.0544 18.1304 11.0749C18.3697 11.3698 18.3491 11.7997 18.0824 12.0696Z" fill="#ED1C24"/>
<path d="M10.0637 9.29492C10.0026 9.35183 9.90874 9.35183 9.8477 9.29492C8.86637 8.29829 7.26987 8.29303 6.28215 9.28358C5.29447 10.2738 5.28932 11.8848 6.2709 12.8815L7.02765 13.6506C7.02846 13.6563 6.72885 13.6605 6.58985 13.6474L6.05223 13.1049C4.95395 11.9887 4.96032 10.1853 6.06645 9.07699C7.17256 7.96872 8.95971 7.9752 10.058 9.0914C10.1114 9.14774 10.1139 9.23558 10.0637 9.29492Z" fill="#009EDB"/>
<path d="M11.2377 10.2695L11.0246 10.4818L10.6525 10.1032C10.5937 10.0439 10.5937 9.94765 10.6525 9.88832C10.7113 9.82889 10.8067 9.82889 10.8655 9.88832L11.2377 10.2695Z" fill="#009EDB"/>
<path d="M8.01024 13.3628C8.01024 13.3628 7.82388 13.4608 7.72609 13.4977L6.69473 12.4569C6.04067 11.7922 5.94776 10.7522 6.47308 9.97988C6.52092 9.91132 6.6141 9.89351 6.68348 9.93981C6.75164 9.98782 6.76832 10.0825 6.72072 10.1513C6.27774 10.8029 6.35618 11.6809 6.9078 12.2417L8.01024 13.3628Z" fill="#009EDB"/>
<path d="M10.606 10.9006L10.4498 11.0582L10.3986 11.1099L9.2253 9.91454C8.78717 9.47051 8.13751 9.31613 7.54914 9.516C7.47369 9.55114 7.38415 9.51795 7.34934 9.44201C7.31453 9.36583 7.3474 9.27557 7.42269 9.24044C7.43321 9.2355 7.44398 9.23177 7.45531 9.22951C8.14909 8.99992 8.91152 9.18652 9.42412 9.71118L10.606 10.9006Z" fill="#009EDB"/>
<path d="M9.96008 11.5231L9.74806 11.7394L8.58184 10.5539C8.26636 10.2929 7.80103 10.3394 7.54239 10.6577C7.31838 10.9336 7.31936 11.3311 7.54489 11.6059L8.30335 12.377C8.36221 12.4365 8.36221 12.5327 8.30335 12.592C8.2445 12.6514 8.14914 12.6514 8.09036 12.592L7.31757 11.821C6.93102 11.3903 6.9634 10.7251 7.39019 10.335C7.79027 9.96905 8.40115 9.97205 8.79782 10.3418L9.96008 11.5231Z" fill="#009EDB"/>
<path d="M9.33277 12.1582L9.12416 12.3689L7.9521 11.1892C7.89325 11.1298 7.89325 11.0336 7.9521 10.9743C8.01095 10.9148 8.10632 10.9148 8.16517 10.9743L9.33277 12.1582Z" fill="#009EDB"/>
<path d="M86 0H50C48.8954 0 48 0.89543 48 2V22C48 23.1046 48.8954 24 50 24H86C87.1046 24 88 23.1046 88 22V2C88 0.89543 87.1046 0 86 0Z" fill="white"/>
<path d="M62.4215 6.44005L54.3566 7.51487C54.3566 7.51487 54 7.55794 54 7.98572V15.6449C54 15.6449 54.0471 16.5414 55.0728 16.5414H64.2136C64.2136 16.5414 65.0279 16.346 65.0279 15.5317V9.20983C65.0279 9.20983 65.044 8.31327 63.9691 8.31327H55.155C55.155 8.31327 54.8124 8.25616 54.7253 7.89553C54.6992 7.75333 54.7553 7.73826 54.9065 7.73826H62.9994V6.8668C62.9994 6.8668 62.9714 6.39898 62.4215 6.44005Z" fill="#ED4C2F"/>
<path d="M59.6781 15.2408C59.009 15.2408 58.5172 14.9683 57.7909 14.2491C57.6617 14.1208 57.6607 13.9125 57.7889 13.7823C57.9171 13.6531 58.1255 13.652 58.2557 13.7803C59.02 14.5366 59.3756 14.7249 59.9867 14.5596C60.3413 14.4634 60.6598 14.0107 60.6788 13.4917C60.6929 13.0881 60.4084 12.8246 59.8334 12.7095C58.7996 12.5031 58.1896 12.1074 58.0203 11.5344C57.8841 11.0726 58.0623 10.5577 58.5112 10.1209L58.5292 10.104C59.4928 9.29855 60.6118 9.8986 61.0685 10.3283C61.2007 10.4535 61.2077 10.6619 61.0825 10.7952C60.9584 10.9274 60.75 10.9344 60.6168 10.8102C60.5777 10.7741 59.7122 9.98776 58.9619 10.6028C58.7055 10.8563 58.5903 11.1337 58.6524 11.3471C58.7445 11.6576 59.2093 11.9121 59.9616 12.0623C61.2408 12.3178 61.35 13.1632 61.338 13.5148C61.3109 14.2802 60.6698 15.1376 60.0688 15.2137C59.9316 15.2307 59.8024 15.2408 59.6791 15.2408H59.6781Z" fill="white"/>
<path d="M68.4222 8.2692C68.2919 8.19001 68.1376 8.11784 67.9533 8.06775C67.6137 7.97158 67.3673 7.84541 67.2501 7.68717C67.1449 7.54896 67.1449 7.36857 67.2712 7.13817C67.3422 6.99988 67.5135 6.91183 67.736 6.8958C67.9664 6.87881 68.2468 6.93384 68.5404 7.08409C68.6114 7.12221 68.7036 7.09207 68.7416 7.01694C68.7798 6.94581 68.7497 6.85376 68.6746 6.81565C68.331 6.63939 67.9924 6.57328 67.7109 6.5933C67.3843 6.61834 67.1289 6.76054 67.0027 6.99094C66.8144 7.33858 66.8264 7.62305 67.0027 7.86247C67.166 8.07581 67.4635 8.23914 67.8692 8.35231C68.0284 8.3984 68.1627 8.4575 68.2669 8.51962C68.4261 8.61573 68.5303 8.72897 68.5814 8.85019C68.6315 8.96336 68.6355 9.08858 68.6024 9.21076C68.5854 9.26985 68.5564 9.32799 68.5233 9.38709C68.5233 9.39506 68.5153 9.40415 68.5063 9.41612C68.3851 9.59644 68.1877 9.68848 67.9493 9.68848C67.6859 9.68848 67.3633 9.58344 67.0197 9.37409C66.9696 9.34498 66.9235 9.31499 66.8815 9.28588C66.8104 9.23986 66.7182 9.26084 66.6721 9.32799C66.6261 9.39913 66.647 9.49117 66.7142 9.53726C66.7683 9.57531 66.8194 9.60449 66.8565 9.63751C67.2501 9.87596 67.6227 9.99312 67.9413 9.99312C68.2849 9.99312 68.5694 9.85882 68.7497 9.59134C68.7537 9.58336 68.7627 9.5663 68.7747 9.54931C68.8248 9.47019 68.8629 9.38191 68.8879 9.29778C68.942 9.11347 68.934 8.91719 68.8549 8.73688C68.7798 8.56062 68.6375 8.39737 68.4231 8.26817L68.4222 8.2692Z" fill="#ED4C2F"/>
<path d="M70.729 7.93812C70.5737 7.89602 70.3943 7.90001 70.21 7.95511C70.0358 8.00623 69.8584 8.10337 69.6912 8.2486V6.73603C69.6912 6.65691 69.624 6.59375 69.5399 6.59375C69.4557 6.59375 69.3887 6.65691 69.3887 6.73603V9.84738C69.3887 9.9265 69.4557 9.98959 69.5399 9.98959C69.624 9.98959 69.6912 9.9265 69.6912 9.84738V8.68237C69.6912 8.68237 69.6972 8.67735 69.6991 8.67439C69.8875 8.44399 70.0969 8.30171 70.2982 8.23863C70.4284 8.20051 70.5496 8.19652 70.6538 8.22555C70.754 8.25466 70.8341 8.30977 70.8922 8.38888C70.9513 8.47302 70.9844 8.58523 70.9844 8.72847V9.84236C70.9844 9.9265 71.0515 9.99365 71.1356 9.99365C71.2198 9.99365 71.2869 9.9265 71.2869 9.84236V8.72847C71.2869 8.52311 71.2328 8.3518 71.1356 8.21758C71.0355 8.0753 70.8932 7.98318 70.729 7.93709V7.93812Z" fill="#ED4C2F"/>
<path d="M72.7632 7.90625C72.4787 7.90625 72.2143 8.02348 72.026 8.21178C71.8376 8.40015 71.7205 8.65958 71.7205 8.94908C71.7205 9.23858 71.8376 9.49801 72.026 9.68631C72.2143 9.87468 72.4737 9.99184 72.7632 9.99184C73.0527 9.99184 73.3122 9.87468 73.5005 9.68631C73.6888 9.49801 73.8061 9.23858 73.8061 8.94908C73.8061 8.65958 73.6888 8.40015 73.5005 8.21178C73.3122 8.02348 73.0527 7.90625 72.7632 7.90625ZM73.2911 9.47696C73.1529 9.61119 72.9686 9.69437 72.7632 9.69437C72.5579 9.69437 72.3696 9.61023 72.2353 9.47696C72.1011 9.34274 72.0179 9.15444 72.0179 8.94908C72.0179 8.74372 72.1021 8.55542 72.2353 8.42113C72.3736 8.2869 72.5579 8.2038 72.7632 8.2038C72.9686 8.2038 73.1569 8.28794 73.2911 8.42113C73.4254 8.55542 73.5085 8.74372 73.5085 8.94908C73.5085 9.15444 73.4244 9.34274 73.2911 9.47696Z" fill="#ED4C2F"/>
<path d="M75.3065 7.90721C75.018 7.90721 74.7575 8.02444 74.5692 8.21274C74.5562 8.22079 74.5482 8.23379 74.5361 8.24583V8.05746C74.5361 7.97332 74.469 7.90625 74.3849 7.90625C74.3007 7.90625 74.2336 7.97332 74.2336 8.05746V11.0226C74.2336 11.1067 74.3007 11.1738 74.3849 11.1738C74.469 11.1738 74.5361 11.1067 74.5361 11.0226V9.65322C74.5491 9.66127 74.5572 9.67427 74.5692 9.68631C74.7575 9.87461 75.017 9.99184 75.3065 9.99184C75.596 9.99184 75.8555 9.87461 76.0438 9.68631C76.2321 9.49794 76.3496 9.23851 76.3496 8.94901C76.3496 8.65951 76.2321 8.40008 76.0438 8.21178C75.8555 8.02341 75.596 7.90625 75.3065 7.90625V7.90721ZM75.8304 9.47792C75.6921 9.61215 75.5078 9.69533 75.3025 9.69533C75.0971 9.69533 74.9087 9.61119 74.7745 9.47792C74.6403 9.3437 74.5572 9.1554 74.5572 8.95004C74.5572 8.74468 74.6413 8.55631 74.7745 8.42209C74.9128 8.28787 75.0971 8.20476 75.3025 8.20476C75.5078 8.20476 75.6961 8.2889 75.8304 8.42209C75.9646 8.55535 76.0478 8.74468 76.0478 8.95004C76.0478 9.1554 75.9636 9.3437 75.8304 9.47792Z" fill="#ED4C2F"/>
<path d="M78.424 8.18267C78.2526 8.00642 78.0169 7.90625 77.7621 7.90625C77.5065 7.90625 77.2679 8.00235 77.0995 8.18267C76.739 8.57234 76.7441 8.99111 76.8867 9.4138C76.9495 9.60616 77.0825 9.74438 77.2376 9.84558C77.3935 9.94575 77.5818 9.99679 77.7946 9.99184C78.0044 9.98778 78.2385 9.9377 78.4904 9.8325C78.5651 9.79948 78.6035 9.71135 78.5695 9.63623C78.5363 9.5611 78.4483 9.52298 78.373 9.55704C78.1558 9.64923 77.9578 9.69533 77.7909 9.69533C77.6358 9.69533 77.5021 9.66223 77.3972 9.59516C77.2967 9.52801 77.2169 9.43183 77.163 9.30159C77.1334 9.21746 77.1091 9.12534 77.0958 9.02517H78.4823C78.5569 9.02517 78.8044 9.04216 78.6744 8.61844C78.6242 8.46715 78.5651 8.32495 78.4232 8.18267H78.424ZM77.1128 8.71861C77.1512 8.5934 77.2221 8.48422 77.3093 8.39609C77.4304 8.27885 77.5892 8.20772 77.7621 8.20772C77.9342 8.20772 78.0923 8.27885 78.2149 8.39609C78.3028 8.48422 78.37 8.59244 78.4158 8.71861H77.1128Z" fill="#ED4C2F"/>
<path d="M80.9636 8.61844C80.9134 8.46715 80.8543 8.32495 80.7125 8.18267C80.5411 8.00642 80.3054 7.90625 80.0498 7.90625C79.795 7.90625 79.5564 8.00235 79.388 8.18267C79.0275 8.57234 79.0326 8.99111 79.1745 9.4138C79.238 9.60616 79.371 9.74438 79.5261 9.84558C79.6812 9.94575 79.8696 9.99679 80.0831 9.99184C80.2929 9.98778 80.527 9.9377 80.7782 9.8325C80.8536 9.79948 80.8912 9.71135 80.8573 9.63623C80.8233 9.5611 80.7361 9.52298 80.6615 9.55704C80.4436 9.64923 80.2463 9.69533 80.0794 9.69533C79.9243 9.69533 79.7906 9.66223 79.6857 9.59516C79.5852 9.52801 79.5054 9.43183 79.4508 9.30159C79.4219 9.21746 79.3968 9.12534 79.3843 9.02517H80.7701C80.8454 9.02517 81.0936 9.04216 80.9636 8.61844ZM79.402 8.71861C79.4404 8.5934 79.5113 8.48422 79.5985 8.39609C79.7196 8.27885 79.8785 8.20772 80.0513 8.20772C80.2234 8.20772 80.3815 8.27885 80.5041 8.39609C80.5921 8.48422 80.6593 8.59244 80.7051 8.71861H79.402Z" fill="#ED4C2F"/>
<path d="M68.92 10.7383H66.7512V16.5382H67.6307V14.8073H69.0141C69.4779 14.8073 69.9377 14.6951 70.3374 14.4597C70.8112 14.1782 71.286 13.6834 71.286 12.8279C71.286 12.0255 70.8693 11.5166 70.4265 11.202C69.9838 10.8875 69.4578 10.7383 68.9209 10.7383H68.92ZM69.1964 13.8797H67.6318V11.6068H69.0442C69.0692 11.6068 69.0923 11.6077 69.1173 11.6108C69.3317 11.6348 70.2713 11.7971 70.2713 12.8048C70.2713 13.8807 69.1964 13.8807 69.1964 13.8807V13.8797Z" fill="#ED4C2F"/>
<path d="M74.7721 12.4233V12.8309C74.4155 12.5405 73.9618 12.3672 73.4669 12.3672C72.3229 12.3672 71.3914 13.2977 71.3914 14.4417C71.3914 15.5857 72.3229 16.5173 73.4669 16.5173C73.9618 16.5173 74.4155 16.344 74.7721 16.0535V16.5173H75.6516V12.4233H74.7721ZM73.4669 15.747C72.7467 15.747 72.1617 15.163 72.1617 14.4417C72.1617 13.7205 72.7467 13.1375 73.4669 13.1375C74.1871 13.1375 74.7712 13.7205 74.7721 14.4397V14.4427C74.7721 15.163 74.1881 15.747 73.4669 15.747Z" fill="#ED4C2F"/>
<path d="M76.0457 12.3672H77.2218L78.6032 15.0097L79.9351 12.3672H80.9988L77.8327 18.2603H76.7971L78.0041 16.0725L76.0457 12.3672Z" fill="#ED4C2F"/>
<defs>
<linearGradient id="paint0_linear_4210_96032" x1="312.116" y1="13.2338" x2="318.863" y2="13.2338" gradientUnits="userSpaceOnUse">
<stop stop-color="#007940"/>
<stop offset="0.2285" stop-color="#00873F"/>
<stop offset="0.7433" stop-color="#40A737"/>
<stop offset="1" stop-color="#5CB531"/>
</linearGradient>
<linearGradient id="paint1_linear_4210_96032" x1="312.116" y1="12.1826" x2="318.863" y2="12.1826" gradientUnits="userSpaceOnUse">
<stop stop-color="#007940"/>
<stop offset="0.2285" stop-color="#00873F"/>
<stop offset="0.7433" stop-color="#40A737"/>
<stop offset="1" stop-color="#5CB531"/>
</linearGradient>
<linearGradient id="paint2_linear_4210_96032" x1="312.116" y1="11.0372" x2="318.863" y2="11.0372" gradientUnits="userSpaceOnUse">
<stop stop-color="#007940"/>
<stop offset="0.2285" stop-color="#00873F"/>
<stop offset="0.7433" stop-color="#40A737"/>
<stop offset="1" stop-color="#5CB531"/>
</linearGradient>
<linearGradient id="paint3_linear_4210_96032" x1="297.012" y1="12.1826" x2="303.863" y2="12.1826" gradientUnits="userSpaceOnUse">
<stop stop-color="#1F286F"/>
<stop offset="0.4751" stop-color="#004E94"/>
<stop offset="0.8261" stop-color="#0066B1"/>
<stop offset="1" stop-color="#006FBC"/>
</linearGradient>
<linearGradient id="paint4_linear_4210_96032" x1="304.527" y1="12.1826" x2="311.181" y2="12.1826" gradientUnits="userSpaceOnUse">
<stop stop-color="#6C2C2F"/>
<stop offset="0.1735" stop-color="#882730"/>
<stop offset="0.5731" stop-color="#BE1833"/>
<stop offset="0.8585" stop-color="#DC0436"/>
<stop offset="1" stop-color="#E60039"/>
</linearGradient>
</defs>
</svg>
