<svg width="24" height="24" viewBox="0 0 24 24" fill="none" xmlns="http://www.w3.org/2000/svg">
<path d="M12.0888 12L11.9893 21.6385" stroke="#333F48" stroke-width="1.2" stroke-linecap="round" stroke-linejoin="round"/>
<path d="M20.6143 16.4372V7.56241C20.6143 7.4296 20.579 7.29917 20.5121 7.18445C20.4451 7.06973 20.3489 6.97485 20.2333 6.90949L12.3583 2.45841C12.2457 2.39477 12.1186 2.36133 11.9893 2.36133C11.8599 2.36133 11.7328 2.39477 11.6202 2.45841L3.74521 6.90949C3.62959 6.97485 3.53339 7.06973 3.46646 7.18445C3.39953 7.29917 3.36426 7.4296 3.36426 7.56241V16.4372C3.36426 16.57 3.39953 16.7005 3.46646 16.8152C3.53339 16.9299 3.62959 17.0248 3.74521 17.0901L11.6202 21.5412C11.7328 21.6049 11.8599 21.6383 11.9893 21.6383C12.1186 21.6383 12.2457 21.6049 12.3583 21.5412L20.2333 17.0901C20.3489 17.0248 20.4451 16.9299 20.5121 16.8152C20.579 16.7005 20.6143 16.57 20.6143 16.4372V16.4372Z" stroke="#333F48" stroke-width="1.2" stroke-linecap="round" stroke-linejoin="round"/>
<path d="M20.5117 7.18365L12.0889 11.9999L3.46777 7.18262" stroke="#333F48" stroke-width="1.2" stroke-linecap="round" stroke-linejoin="round"/>
<path d="M16.5955 13.9227V9.42269L7.89746 4.5625" stroke="#333F48" stroke-width="1.2" stroke-linecap="round" stroke-linejoin="round"/>
</svg>
