<svg width="24" height="24" viewBox="0 0 24 24" fill="none" xmlns="http://www.w3.org/2000/svg">
 <path d="M21.4 12C21.4 17.1915 17.1915 21.4 12 21.4C6.80852 21.4 2.6 17.1915 2.6 12C2.6 6.80852 6.80852 2.6 12 2.6C17.1915 2.6 21.4 6.80852 21.4 12Z" stroke="#C8C7CC" stroke-width="1.2"/>
 <path d="M11.9475 13.9762C9.7247 13.9484 7.97934 12.1374 8.01217 9.89567C8.04375 7.7487 9.85352 5.98565 12.0068 6.00207C14.2157 6.01975 16.028 7.86362 15.9876 10.0523C15.9471 12.2321 14.1235 14.004 11.9475 13.9762ZM11.9904 7.9053C10.8235 7.90404 9.92046 8.80071 9.91035 9.97018C9.90025 11.1397 10.7969 12.0641 11.9538 12.0755C13.1333 12.0881 14.0856 11.1472 14.0805 9.9765C14.0755 8.83608 13.1371 7.90656 11.9904 7.9053Z" fill="#C8C7CC"/>
 <path d="M15.9493 17.7126C13.2782 16.7515 10.6854 16.7767 8.00676 17.7062C8.00676 17.0697 7.97771 16.5481 8.0257 16.0341C8.03959 15.8864 8.25429 15.6805 8.41468 15.6338C10.8117 14.9354 13.2163 14.9253 15.6096 15.6515C15.7611 15.6969 15.9304 15.9116 15.9645 16.0745C16.0238 16.3562 15.9872 16.6593 15.9834 16.9523C15.9796 17.1607 15.9645 17.3678 15.9493 17.7126Z" fill="#C8C7CC"/>
 </svg>

